<svg xmlns="http://www.w3.org/2000/svg" viewBox="0 0 1333.33 1148.93" shape-rendering="geometricPrecision" text-rendering="geometricPrecision" image-rendering="optimizeQuality" fill-rule="evenodd" clip-rule="evenodd"><path d="M782.68 9.59c4.36-5.49 10.55-8.69 17-9.43 6.45-.74 13.2.99 18.69 5.35a25.361 25.361 0 019.43 17c.73 6.45-.99 13.2-5.35 18.69-12.48 15.71-16.43 32.83-16.09 50.71.35 18.48 5.3 38.28 10.29 58.19 6.5 25.95 13.03 52.07 12.5 78.89-.54 27.29-8.4 54.7-30.91 82.19l-.05.06c-4.43 5.38-10.65 8.47-17.11 9.12-6.47.65-13.19-1.17-18.61-5.6l-.07-.06c-5.38-4.43-8.48-10.64-9.12-17.1-.65-6.48 1.17-13.2 5.6-18.61 28.83-35.2 18.58-76.14 8.47-116.56-12.78-51.09-25.41-101.56 15.34-152.84zm467.66 937.05l-86.07 187.38a25.2 25.2 0 01-9.33 10.79 25.476 25.476 0 01-12.39 3.99c-.43.08-.88.13-1.33.13H188.45c-5.59 0-10.78-1.83-15.01-4.92-4.29-3.14-7.57-7.6-9.22-12.75l-74.2-184.63-4.58-.19c-25.2-1.59-46.6-13.41-61.69-30.95C8.75 898.1.02 875.03.02 850.79c0-1.99.07-4.13.22-6.4.85-13.38 2.91-25.54 6.02-36.5 8.29-29.18 24.03-50.02 44.45-63.18 20.32-13.09 45.16-18.46 71.8-16.78 10.06.64 20.38 2.28 30.8 4.9 34.27-80.24 78.07-147.76 128.45-202.5 54.63-59.35 116.99-103.71 183.32-133.03 31.11-13.75 63.13-24.2 95.63-31.33a495.164 495.164 0 0199.48-11.44c33.36-.45 66.77 2.45 99.8 8.71 32.85 6.22 65.38 15.76 97.2 28.6 69.97 28.23 136.59 72.44 195.72 132.57 54.53 55.46 102.71 124.49 141.29 207.06 22.29-6.28 45.4-8.2 66.59-2.73 19.94 5.15 38.04 16.78 51.99 37.29 17.54 25.81 23.85 62.04 18.98 95.84-4.67 32.41-19.61 62.84-44.77 80.2-2.17 1.5-4.49 2.62-6.86 3.35-2.04.63-4.15 1-6.27 1.1-.41.08-.84.12-1.28.12h-22.22zM1143.6 750.2c-35.72-75.38-79.87-138.3-129.57-188.71-53.66-54.44-113.83-94.38-176.84-119.81-28.57-11.53-57.74-20.09-87.14-25.68-29.65-5.63-59.52-8.24-89.24-7.85-29.59.4-59.23 3.83-88.56 10.29-29.04 6.39-57.67 15.76-85.52 28.06-59.03 26.1-114.7 65.57-163.78 118.41-45.34 48.81-85.07 109.06-116.67 180.75l5.37 3.06 10.6 6.23c17.14 10.15 34.35 20.34 51.25 23.04 16.14 2.58 32.85-1.68 50.62-19.69 11.15-11.3 22.35-20.53 34.43-27.03 12.35-6.66 25.57-10.46 40.46-10.73 13.82-.24 28.41 2.76 44.37 9.61 15.56 6.68 32.52 17.08 51.49 31.78 5.42 4.2 12.02 7.56 19.2 9.96 7.52 2.52 15.67 4 23.81 4.32 7.54.3 14.94-.38 21.61-2.14 6.02-1.58 11.43-4.06 15.75-7.44 7.69-6.04 15.5-11.89 23.48-17.26 8.02-5.41 16.28-10.37 24.85-14.62 9.24-4.58 18.73-8.25 28.49-10.64 9.86-2.42 20-3.54 30.46-3.03 45.03 2.21 63.02 22.57 80.19 42.52.35.31.67.67.96 1.05 9.35 10.85 18.54 21.26 37.29 21.31 26.45.07 42.9-15.18 58.37-29.52l.15-.13c18.41-17.06 35.97-33.3 61.82-37.86 25.51-4.51 58.11 2.85 105.78 33.1 31.64 20.08 54.52 24.54 72.64 21.46 17.25-2.93 30.97-12.98 43.87-22.79zM539.14 10.39c4.15-5.66 10.2-9.11 16.63-10.09l.62-.06c6.23-.8 12.77.7 18.22 4.69 5.66 4.15 9.11 10.2 10.09 16.63l.06.62c.8 6.23-.7 12.77-4.69 18.22-27.73 37.95-18.62 78.04-9.57 117.87l.12.52c5.44 23.95 10.84 47.87 10.57 72.62-.28 25.37-6.48 51.18-24.52 77.88-3.92 5.81-9.84 9.5-16.24 10.73a25.31 25.31 0 01-19.04-3.87c-5.81-3.92-9.5-9.85-10.74-16.24a25.318 25.318 0 013.87-19.04c11.85-17.54 15.69-35.53 15.51-53.76-.18-18.7-4.57-38.09-8.99-57.54l-.12-.52c-11.57-50.91-23.09-102.15 18.21-158.66zm-9.11 480.17c4.76-5.12 11.17-7.83 17.68-8.07 6.49-.23 13.08 2.01 18.2 6.77 5.12 4.77 7.83 11.18 8.07 17.68.23 6.49-2.01 13.08-6.77 18.2l-69.43 74.64c-4.76 5.12-11.18 7.83-17.68 8.07-6.49.23-13.08-2.01-18.2-6.77-5.12-4.77-7.83-11.18-8.07-17.68a25.375 25.375 0 016.77-18.2l69.43-74.64zm251.69 34.58a25.301 25.301 0 01-6.77-18.2c.23-6.5 2.94-12.91 8.07-17.68 5.13-4.76 11.72-7 18.2-6.77 6.5.23 12.91 2.94 17.68 8.07l69.43 74.64a25.29 25.29 0 016.77 18.2c-.23 6.5-2.94 12.91-8.06 17.68-5.12 4.76-11.71 7-18.2 6.77-6.5-.24-12.91-2.94-17.68-8.07l-69.43-74.64zm-135-.07l.03-.78c.24-6.72 3.08-12.76 7.54-17.14a25.251 25.251 0 0117.91-7.28l.78.02c6.72.24 12.76 3.09 17.15 7.54a25.27 25.27 0 017.28 17.95l-.89 88.41a25.262 25.262 0 01-7.54 17.14 25.3 25.3 0 01-17.92 7.28l-.78-.02c-6.72-.24-12.75-3.09-17.14-7.54a25.27 25.27 0 01-7.28-17.95l.86-87.63zm527.96 268.96c-19.51 14.82-40.41 29.87-68.34 34.2-28.04 4.35-62.41-2.3-108.07-31.27-61.33-38.93-80.8-21.16-102.15-1.37l-.5.45c-11.22 10.41-22.82 21.11-37.59 29.39-15.12 8.47-33.28 14.21-57.07 14.15-21.85-.05-37.19-5.14-49.33-12.83-12.09-7.65-20.53-17.45-29.09-27.39l-.63-.85c-4.94-5.73-10.01-11.47-16.32-15.77-6.39-4.35-14.41-7.47-25.59-8.02-5.29-.26-10.63.4-15.97 1.78-5.5 1.42-11.08 3.64-16.69 6.42-6.35 3.15-12.74 7.04-19.13 11.39-6.48 4.42-13.09 9.4-19.73 14.61-9.61 7.55-20.87 12.98-32.96 16.43-12.61 3.6-26.19 5.05-39.74 4.5-13.5-.54-27.11-3.08-39.78-7.44-12.41-4.27-24.05-10.32-33.94-17.99-14.2-11.01-26.29-18.74-36.73-23.65-9.93-4.66-18.28-6.72-25.47-6.6-6.06.11-11.95 2.11-17.9 5.63-6.39 3.79-12.83 9.31-19.57 16.15-11.4 11.55-22.45 20.11-33.2 26.2-10.84 6.14-21.41 9.8-31.73 11.5-20.55 4.39-39.92 1.21-58.69-5.74-18.17-6.72-35.67-16.98-53.14-27.23-21.98-12.88-45.27-21.14-66.29-22.47-12.2-.77-23.57.8-33.35 5.19-9.56 4.29-17.72 11.36-23.76 21.65-6.19 10.56-10.22 24.57-11.35 42.51-.88 13.94 2.48 25.27 9.38 33.36 6.93 8.12 17.61 13.27 31.33 14.83h1171.77c10.82-11.27 17.19-28.8 18.87-47.06 1.83-19.82-1.89-40.23-11.42-54.26-8.8-12.94-21.69-18.02-35.84-18.33-19.84-.44-42.26 8.11-60.31 17.93zM661.19 10.49c4.11-5.67 10.15-9.14 16.57-10.17 6.43-1.02 13.24.39 18.91 4.5 5.67 4.1 9.14 10.14 10.17 16.57 1.02 6.43-.39 13.24-4.5 18.91-14.07 19.38-18.69 38.78-18.57 58.06.11 19.73 5.19 39.93 10.2 59.9 6.15 24.5 12.24 48.79 11.86 73.93-.39 25.59-7.48 51.5-27.89 78.29-4.24 5.55-10.35 8.87-16.8 9.74-6.44.87-13.22-.73-18.78-4.97a25.3 25.3 0 01-9.74-16.8c-.87-6.44.72-13.21 4.98-18.78 12.9-16.94 17.11-34.39 16.94-52.18-.17-18.31-5-37.52-9.86-56.92-6.24-24.88-12.56-50.04-12.19-76.53.37-26.88 7.64-54.56 28.71-83.57zm531.85 939.43H146.02l59.53 148.13h919.44l68.04-148.13z" fill-rule="nonzero"/></svg>